#!OML:ASF F:\VICON\USERDATA\INSTALL\rory3\rory3.ASF
:FULLY-SPECIFIED
:DEGREES
136
root 0.6947683167647919 17.449962341973766 37.417120215569646 0.4662459381074049 2.345502645731175 0.4878717699201931
lfemur -23.803579157271507 -4.545068437362048 -24.935662518441355
ltibia 47.22504031220943
lfoot -14.918059417459165 -3.470061084315522
ltoes -2.3846953581762342
rfemur -26.168780001134685 -5.243468198230527 18.62034675005298
rtibia 84.78888620728749
rfoot 21.90606652469676 -6.735250465968061
rtoes 7.6555462598629
lowerback nan -1.6130590471298802 -2.713615082317094
upperback 0.5866246711107138 0.8275940889337203 -0.24854648502113852
thorax -7.712617109690826 -0.5780084282654866 2.480054443135157
lowerneck -19.510060926820387 -5.80427265386613 -2.357612875663537
upperneck 9.270086353542132 -5.922142511808592 5.888497524726299
head 6.397579906972744 -3.0896362858982296 1.4561096781246872
lclavicle -2.3606094618635163e-14 -1.781196242428617e-15
lhumerus -46.489266762644675 -7.608643717654842 89.80158853520732
lradius 119.47308143618245
lwrist 33.00906899288403
lhand -24.97307448317294 -2.8172810117962106
lfingers nan
lthumb 1.3318941573988212 26.649817449630422
rclavicle -1.9840778696589586e-14 -2.0642044687297705e-15
rhumerus -53.72488377957273 10.532639485369495 -101.6405310807795
rradius 102.26652084474603
rwrist -18.319710996272832
rhand -20.118202234741126 nan
rfingers nan
rthumb 5.982972650083877 15.206281618589538
137
root 0.6838431630008689 17.39742010172339 36.97590744815682 1.1639621840286014 3.291608096968096 1.0795825317099381
lfemur -23.18265874695549 -6.413891069443668 -26.053079952336898
ltibia 48.29962269628327
lfoot -15.808187543090863 -1.9030006327962754
ltoes -1.6836330488691704
rfemur -28.209265124005896 -6.526138662793487 16.86895407408932
rtibia 88.5597924815236
rfoot 21.5969743177482 -5.705726454573297
rtoes 7.134898349075322
lowerback nan -1.6082836922037886 -3.187407023642741
upperback 0.30774802514286004 0.49411162221545823 -0.3439002359647385
thorax -8.642701572522032 -0.7117145002473547 2.611582660888353
lowerneck -19.969759465694082 -5.8061565016532315 -2.385243033464379
upperneck 9.422546116601456 -5.97088760245779 5.888756122187458
head 6.5603738361372 -3.087693321689805 1.4536214997320147
lclavicle -1.3376177891336107e-14 -5.8207166103611084e-15
lhumerus -44.049561445347564 -8.177324073601996 89.20069704745451
lradius 119.59915618216719
lwrist 33.7835948428103
lhand -25.180917018954894 -0.21264340981677288
lfingers nan
lthumb 1.1693333674943105 29.31134375399043
rclavicle -9.60478671031254e-15 -6.2034488514514114e-15
rhumerus -54.10887190049408 9.779592505308141 -101.3647891019153
rradius 100.40843135844806
rwrist -18.14296538453266
rhand -20.107310554204375 nan
rfingers nan
rthumb 6.013780767193179 16.16653533359214
138
root 0.7322160052788621 17.39487977700188 36.567643537909206 0.7199171646272471 2.6980962292104644 2.7253438002165287
lfemur -20.16690977164815 -7.168999736293593 -28.76354454486819
ltibia 48.833299732288495
lfoot -17.699424249505697 -0.13910207019130993
ltoes 0.5615500622272158
rfemur -27.741462038832267 -6.338032310556176 13.867326402873243
rtibia 90.6717018117715
rfoot 20.467664186595293 -3.9244109165455097
rtoes 8.74144635897089
lowerback nan -1.2316941959196508 -4.174040890677421
upperback 0.580946805013752 0.4472222180607397 -0.7342743293465261
thorax -7.523248376038447 -0.6823366297966903 2.7435027983111695
lowerneck -19.479144011052348 -5.749502235933464 -2.41576506536269
upperneck 9.183626674286417 -5.911889124890561 5.8918014121633995
head 6.409051528836614 -3.0573237289078676 1.4740656003463841
lclavicle -2.2480951962543614e-14 -7.207217833898895e-15
lhumerus -41.93556043257123 -8.711429285022072 88.74521840718683
lradius 119.66539283373477
lwrist 34.445633449253066
lhand -25.853393473884825 3.87947801215224
lfingers nan
lthumb 0.512433902974256 33.41087776840604
rclavicle -1.8629266116508175e-14 -7.639170644673295e-15
rhumerus -54.98251608483049 9.004636332866736 -101.30208034646712
rradius 99.26964359264545
rwrist -17.57023294351885
rhand -20.62110860175254 nan
rfingers nan
rthumb 5.561889458346262 14.523458093336735
139
root 0.6860501607526228 17.354940935634545 37.01689830295459 1.590480272698386 1.8945684554835232 1.0807550567858337
lfemur -19.443897718602596 -7.1018355063565455 -27.276227334462476
ltibia 49.64945054119104
lfoot -19.02944806116678 0.9862474370754413
ltoes 1.9255982488000907
rfemur -31.07321587386874 -6.2665127155698155 16.13909636326229
rtibia 93.2171394043404
rfoot 20.643802530733748 -4.09919215257512
rtoes 9.245641862110913
lowerback nan -1.0503260637538263 -3.1776449091599264
upperback 0.26596331329107115 0.6481389610515714 -0.3606871142635515
thorax -8.046875945720307 -0.5867164678258548 2.6818711458374636
lowerneck -19.80446005083636 -5.625206281573554 -2.375024700094029
upperneck 9.145152743964042 -5.746270883717407 5.650831092340413
head 6.447526834466143 -2.97806047640806 1.4275501074054795
lclavicle 1.514957790944973e-14 -1.5529552778006443e-15
lhumerus -39.675756595154226 -9.082867623043803 88.23789013885282
lradius 119.50977812071517
lwrist 34.63681770032518
lhand -26.498695711162632 3.1847975843429355
lfingers nan
lthumb -0.15957030424276786 32.66364202065297
rclavicle 1.9131430051484244e-14 -1.8351987158670786e-15
rhumerus -55.63234333954283 8.50794313323761 -100.86398346584144
rradius 98.43946012903444
rwrist -17.988112082529028
rhand -20.617845306648114 nan
rfingers nan
rthumb 5.604044495525322 13.79606128012643
